<svg xmlns="http://www.w3.org/2000/svg" xmlns:xlink="http://www.w3.org/1999/xlink" width="1000" zoomAndPan="magnify" viewBox="0 0 750 749.999995" height="1000" preserveAspectRatio="xMidYMid meet" version="1.0"><defs><clipPath id="fbc51ea5f1"><path d="M 0 109.21875 L 750 109.21875 L 750 640.96875 L 0 640.96875 Z M 0 109.21875 " clip-rule="nonzero"/></clipPath></defs><g clip-path="url(#fbc51ea5f1)"><path fill="#00841f" d="M 331.929688 509.515625 C 340.816406 518.058594 350.386719 525.582031 360.300781 532.757812 C 325.433594 553.613281 284.414062 566.261719 237.921875 566.261719 C 114.859375 566.261719 0 475.332031 0 338.59375 C 0 209.71875 104.261719 110.585938 239.972656 110.585938 C 279.96875 111.269531 322.015625 123.574219 358.933594 145.453125 C 362.011719 147.503906 365.429688 149.214844 368.503906 151.265625 C 380.128906 158.785156 391.066406 167.332031 401.320312 176.5625 L 335.003906 262.023438 C 323.039062 251.082031 309.367188 241.851562 295.007812 235.015625 C 291.933594 233.648438 288.855469 232.28125 285.78125 230.914062 C 270.738281 225.101562 255.355469 221.683594 240.65625 221.683594 C 173.65625 221.683594 117.59375 272.617188 117.59375 339.621094 C 117.59375 407.304688 176.046875 456.871094 238.265625 456.871094 C 255.015625 456.871094 270.738281 453.109375 285.78125 446.957031 C 297.058594 469.859375 312.441406 491.054688 331.929688 509.515625 Z M 750 537.886719 L 710.6875 640.78125 C 631.722656 634.96875 581.128906 602.835938 541.816406 565.578125 C 530.878906 566.945312 520.28125 567.628906 509 567.628906 C 460.460938 567.628906 416.019531 554.980469 379.101562 532.757812 C 376.027344 530.707031 372.605469 529 369.53125 526.605469 C 337.738281 505.414062 311.757812 476.355469 294.324219 442.511719 C 292.617188 439.4375 291.25 436.359375 289.882812 433.285156 C 277.234375 404.910156 270.054688 373.121094 270.054688 339.277344 C 270.054688 305.09375 277.234375 272.960938 290.222656 244.246094 C 303.554688 250.398438 316.203125 258.945312 327.824219 269.542969 L 336.03125 277.0625 L 414.996094 175.535156 L 408.160156 169.039062 C 398.585938 160.496094 388.671875 152.632812 378.078125 145.453125 C 414.996094 122.207031 460.117188 109.21875 509.34375 109.21875 C 644.710938 109.21875 748.632812 208.351562 748.632812 339.277344 C 748.632812 417.902344 710.6875 484.902344 650.523438 525.582031 C 680.265625 532.757812 715.132812 536.863281 750 537.886719 Z M 631.378906 338.253906 C 631.378906 270.910156 578.394531 218.949219 509.34375 218.949219 C 440.292969 218.949219 387.304688 270.910156 387.304688 338.253906 C 387.304688 405.253906 440.292969 456.871094 509.34375 456.871094 C 578.394531 456.871094 631.378906 405.253906 631.378906 338.253906 Z M 631.378906 338.253906 " fill-opacity="1" fill-rule="nonzero"/></g><path fill="#ffffff" d="M 567.925781 520.09375 C 573.375 525.253906 578.949219 530.125 584.644531 534.710938 L 579.9375 540.554688 C 574.085938 535.839844 568.363281 530.835938 562.769531 525.539062 Z M 590.5 539.296875 C 596.4375 543.808594 602.503906 548.019531 608.703125 551.929688 L 604.699219 558.273438 C 598.316406 554.246094 592.070312 549.910156 585.960938 545.269531 Z M 615.007812 555.777344 C 621.394531 559.546875 627.914062 563 634.566406 566.144531 L 631.363281 572.925781 C 624.5 569.683594 617.78125 566.121094 611.199219 562.238281 Z M 641.285156 569.195312 C 648.046875 572.140625 654.945312 574.773438 661.980469 577.097656 L 659.628906 584.21875 C 652.375 581.824219 645.261719 579.109375 638.292969 576.070312 Z M 669.007812 579.300781 C 676.035156 581.386719 683.199219 583.171875 690.496094 584.65625 L 689.003906 592.007812 C 681.492188 590.480469 674.113281 588.640625 666.871094 586.488281 Z M 697.769531 586.027344 C 704.972656 587.277344 712.300781 588.238281 719.757812 588.914062 L 719.082031 596.382812 C 711.421875 595.691406 703.890625 594.699219 696.488281 593.414062 Z M 697.769531 586.027344 " fill-opacity="1" fill-rule="nonzero"/><path stroke-linecap="butt" transform="matrix(0.687127, 0.300593, -0.300593, 0.687127, 553.187544, 559.237265)" fill="none" stroke-linejoin="miter" d="M 1.694876 4.706168 C 79.721557 32.805 157.746434 32.804163 235.77428 4.701571 " stroke="#ffffff" stroke-width="10" stroke-opacity="1" stroke-miterlimit="4"/><path stroke-linecap="butt" transform="matrix(0.738296, 0.131981, -0.131981, 0.738296, 616.694325, 518.933731)" fill="none" stroke-linejoin="miter" d="M 1.650596 4.963901 C 32.020048 15.587516 91.086985 15.583801 178.848112 4.963926 " stroke="#ffffff" stroke-width="10" stroke-opacity="1" stroke-miterlimit="4"/></svg>