<svg xmlns="http://www.w3.org/2000/svg" xmlns:xlink="http://www.w3.org/1999/xlink" width="1000" zoomAndPan="magnify" viewBox="0 0 750 749.999995" height="1000" preserveAspectRatio="xMidYMid meet" version="1.0"><defs><g/><clipPath id="e89c5c9f9a"><path d="M 8.851562 200.128906 L 462.425781 200.128906 L 462.425781 521.714844 L 8.851562 521.714844 Z M 8.851562 200.128906 " clip-rule="nonzero"/></clipPath></defs><g clip-path="url(#e89c5c9f9a)"><path fill="#ffffff" d="M 209.589844 442.214844 C 214.964844 447.382812 220.753906 451.933594 226.746094 456.273438 C 205.660156 468.882812 180.851562 476.535156 152.738281 476.535156 C 78.3125 476.535156 8.851562 421.542969 8.851562 338.847656 C 8.851562 260.910156 71.902344 200.957031 153.976562 200.957031 C 178.164062 201.371094 203.59375 208.8125 225.921875 222.042969 C 227.78125 223.285156 229.847656 224.316406 231.710938 225.558594 C 238.738281 230.105469 245.355469 235.273438 251.554688 240.855469 L 211.449219 292.539062 C 204.214844 285.925781 195.945312 280.34375 187.261719 276.207031 C 185.402344 275.382812 183.539062 274.554688 181.679688 273.726562 C 172.582031 270.210938 163.28125 268.144531 154.390625 268.144531 C 113.871094 268.144531 79.96875 298.949219 79.96875 339.46875 C 79.96875 380.402344 115.316406 410.378906 152.945312 410.378906 C 163.074219 410.378906 172.582031 408.105469 181.679688 404.382812 C 188.503906 418.234375 197.804688 431.050781 209.589844 442.214844 Z M 462.425781 459.375 L 438.648438 521.601562 C 390.894531 518.085938 360.296875 498.652344 336.523438 476.121094 C 329.90625 476.945312 323.5 477.359375 316.675781 477.359375 C 287.320312 477.359375 260.445312 469.710938 238.117188 456.273438 C 236.257812 455.03125 234.191406 454 232.328125 452.550781 C 213.101562 439.734375 197.390625 422.164062 186.847656 401.695312 C 185.816406 399.835938 184.988281 397.972656 184.160156 396.113281 C 176.511719 378.953125 172.171875 359.730469 172.171875 339.261719 C 172.171875 318.589844 176.511719 299.15625 184.367188 281.789062 C 192.429688 285.511719 200.078125 290.679688 207.109375 297.089844 L 212.070312 301.636719 L 259.824219 240.238281 L 255.691406 236.308594 C 249.902344 231.140625 243.90625 226.386719 237.5 222.042969 C 259.824219 207.984375 287.113281 200.128906 316.882812 200.128906 C 398.75 200.128906 461.597656 260.082031 461.597656 339.261719 C 461.597656 386.8125 438.648438 427.332031 402.265625 451.933594 C 420.25 456.273438 441.335938 458.753906 462.425781 459.375 Z M 390.6875 338.640625 C 390.6875 297.914062 358.644531 266.492188 316.882812 266.492188 C 275.125 266.492188 243.078125 297.914062 243.078125 338.640625 C 243.078125 379.160156 275.125 410.378906 316.882812 410.378906 C 358.644531 410.378906 390.6875 379.160156 390.6875 338.640625 Z M 390.6875 338.640625 " fill-opacity="1" fill-rule="nonzero"/></g><path fill="#00841f" d="M 352.3125 448.613281 C 355.609375 451.734375 358.976562 454.679688 362.421875 457.453125 L 359.578125 460.988281 C 356.039062 458.136719 352.578125 455.109375 349.195312 451.90625 Z M 365.964844 460.226562 C 369.554688 462.957031 373.222656 465.503906 376.972656 467.867188 L 374.550781 471.703125 C 370.691406 469.269531 366.914062 466.644531 363.21875 463.835938 Z M 380.785156 470.195312 C 384.648438 472.472656 388.589844 474.5625 392.617188 476.464844 L 390.675781 480.566406 C 386.527344 478.605469 382.460938 476.449219 378.484375 474.101562 Z M 396.679688 478.308594 C 400.769531 480.089844 404.9375 481.683594 409.195312 483.085938 L 407.769531 487.394531 C 403.386719 485.945312 399.082031 484.304688 394.867188 482.46875 Z M 413.441406 484.417969 C 417.695312 485.683594 422.027344 486.761719 426.441406 487.660156 L 425.535156 492.105469 C 420.992188 491.179688 416.53125 490.070312 412.152344 488.765625 Z M 430.839844 488.488281 C 435.195312 489.242188 439.625 489.824219 444.136719 490.234375 L 443.726562 494.75 C 439.09375 494.332031 434.539062 493.734375 430.0625 492.957031 Z M 430.839844 488.488281 " fill-opacity="1" fill-rule="nonzero"/><path stroke-linecap="butt" transform="matrix(0.415552, 0.181788, -0.181788, 0.415552, 343.399352, 472.286133)" fill="none" stroke-linejoin="miter" d="M 1.699427 4.706303 C 79.717575 32.805296 157.746957 32.802311 235.771792 4.70425 " stroke="#00841f" stroke-width="10" stroke-opacity="1" stroke-miterlimit="4"/><path stroke-linecap="butt" transform="matrix(0.446497, 0.0798177, -0.0798177, 0.446497, 381.806146, 447.91183)" fill="none" stroke-linejoin="miter" d="M 1.654567 4.967169 C 32.020603 15.583855 91.091554 15.583715 178.848949 4.961302 " stroke="#00841f" stroke-width="10" stroke-opacity="1" stroke-miterlimit="4"/><g fill="#ffffff" fill-opacity="1"><g transform="translate(477.681373, 517.83967)"><g><path d="M 14.09375 0.34375 L 13.0625 0 L 12.265625 0 L 11.25 -0.90625 L 11.46875 -2.609375 L 11.59375 -5 L 12.390625 -7.390625 L 12.609375 -8.1875 L 12.71875 -9.890625 L 12.953125 -10.5625 L 13.0625 -12.15625 L 13.0625 -12.953125 L 13.640625 -14.546875 L 13.75 -15.34375 L 13.640625 -16.25 L 14.203125 -18.625 L 14.203125 -19.546875 L 14.546875 -20.90625 L 14.890625 -22.609375 L 15.109375 -23.40625 L 15.21875 -24.203125 L 15.453125 -25.671875 L 15.671875 -26.359375 L 15.796875 -27.953125 L 16.359375 -29.078125 L 16.125 -30.21875 L 16.25 -31.015625 L 16.46875 -31.8125 L 17.046875 -33.40625 L 17.5 -35.109375 L 17.71875 -35.90625 L 17.5 -36.703125 L 18.0625 -38.0625 L 18.296875 -38.734375 L 18.296875 -40.328125 L 18.625 -41.46875 L 18.625 -42.484375 L 18.859375 -43.28125 L 19.3125 -43.96875 L 19.3125 -44.765625 L 19.546875 -45.4375 L 19.875 -47.140625 L 19.765625 -47.9375 L 20.34375 -49.1875 L 20.34375 -50.328125 L 20.5625 -50.890625 L 20.5625 -51.8125 L 20.671875 -52.59375 L 20.90625 -53.390625 L 21.46875 -55.21875 L 21.578125 -55.890625 L 21.578125 -56.578125 L 21.703125 -57.375 L 21.703125 -58.046875 L 22.046875 -59.53125 L 22.265625 -60.328125 L 22.5 -62.03125 L 22.609375 -63.84375 L 16.46875 -63.84375 L 14.890625 -63.96875 L 14.09375 -63.84375 L 13.0625 -63.84375 L 11.921875 -63.96875 L 11.015625 -63.96875 L 10 -64.296875 L 9.65625 -65.328125 L 9.890625 -66.6875 L 10.21875 -67.59375 L 10.21875 -68.5 L 10.109375 -69.296875 L 10.5625 -70.890625 L 10.796875 -71.578125 L 10.90625 -73.171875 L 11.359375 -74.640625 L 11.703125 -75.328125 L 11.703125 -76.90625 L 11.8125 -77.59375 L 12.390625 -78.84375 L 13.40625 -79.640625 L 14.203125 -79.75 L 17.15625 -79.75 L 17.71875 -79.640625 L 18.515625 -79.640625 L 19.3125 -79.75 L 27.71875 -79.75 L 28.515625 -79.640625 L 31.015625 -79.640625 L 38.28125 -79.75 L 39.984375 -79.640625 L 42.375 -79.75 L 43.40625 -79.640625 L 50.4375 -79.640625 L 52.03125 -79.53125 L 53.0625 -79.296875 L 53.28125 -78.390625 L 53.28125 -77.703125 L 53.171875 -76.90625 L 52.9375 -76 L 52.9375 -75.203125 L 52.828125 -74.53125 L 52.59375 -73.734375 L 52.59375 -73.046875 L 52.375 -71.6875 L 52.140625 -70.890625 L 52.03125 -70.203125 L 51.921875 -68.84375 L 51.46875 -67.375 L 51.234375 -66.578125 L 51.125 -64.984375 L 50.671875 -63.96875 L 49.53125 -63.84375 L 48.515625 -63.96875 L 47.140625 -63.96875 L 46.125 -63.84375 L 44.984375 -63.84375 L 40.21875 -63.96875 L 39.1875 -63.84375 L 38.96875 -63.046875 L 39.078125 -62.375 L 38.734375 -61.578125 L 38.734375 -60.890625 L 38.515625 -60.21875 L 38.28125 -58.734375 L 38.171875 -57.9375 L 37.71875 -55.890625 L 37.265625 -54.984375 L 37.484375 -54.421875 L 36.921875 -52.828125 L 36.46875 -51.34375 L 36.46875 -50.671875 L 36.359375 -49.3125 L 36.234375 -48.625 L 36.234375 -47.828125 L 35.671875 -46.46875 L 35.453125 -44.765625 L 35.21875 -43.96875 L 34.875 -42.375 L 34.53125 -41.6875 L 34.53125 -40.90625 L 34.421875 -39.421875 L 34.078125 -38.0625 L 33.625 -37.265625 L 33.515625 -35.671875 L 33.28125 -34.984375 L 33.28125 -34.3125 L 32.953125 -32.71875 L 32.609375 -31.015625 L 32.375 -30 L 32.375 -28.859375 L 32.265625 -28.171875 L 32.03125 -27.5 L 31.921875 -26.703125 L 31.46875 -25.328125 L 31.359375 -24.546875 L 31.25 -23.859375 L 31.359375 -23.0625 L 31.015625 -21.46875 L 30.671875 -19.65625 L 30.21875 -18.171875 L 30.109375 -17.375 L 29.765625 -15.90625 L 29.203125 -13.515625 L 28.96875 -12.609375 L 28.625 -11.015625 L 28.75 -10.109375 L 28.171875 -7.609375 L 27.5 -4.4375 L 27.265625 -2.84375 L 26.921875 -1.25 L 26.703125 -0.5625 L 25.328125 0 L 15.453125 0 Z M 14.09375 0.34375 "/></g></g></g><g fill="#ffffff" fill-opacity="1"><g transform="translate(521.98578, 517.83967)"><g><path d="M 15 0.234375 L 10.90625 0.109375 L 9.421875 0.109375 L 5.90625 -0.109375 L 4.890625 -0.34375 L 4.65625 -1.015625 L 4.65625 -2.046875 L 5 -3.1875 L 5.109375 -4.3125 L 5.21875 -5.5625 L 5.21875 -6.359375 L 5.453125 -7.046875 L 5.453125 -7.84375 L 5.796875 -8.640625 L 5.796875 -9.3125 L 5.90625 -10.109375 L 6.25 -11.703125 L 6.25 -12.5 L 6.59375 -13.40625 L 6.46875 -14.203125 L 6.8125 -15.109375 L 6.9375 -16.703125 L 7.15625 -17.609375 L 7.265625 -18.40625 L 7.15625 -19.3125 L 7.609375 -20.21875 L 7.609375 -21.921875 L 8.1875 -23.96875 L 8.1875 -25 L 8.40625 -26.125 L 8.515625 -27.828125 L 8.515625 -28.75 L 8.96875 -30.328125 L 9.09375 -31.125 L 9.203125 -32.03125 L 9.203125 -33.0625 L 9.765625 -33.859375 L 10 -34.53125 L 9.890625 -35.21875 L 10 -36.578125 L 10.21875 -37.375 L 10.5625 -38.0625 L 10.5625 -38.734375 L 10.796875 -39.53125 L 11.015625 -40.78125 L 11.140625 -41.46875 L 11.359375 -42.9375 L 11.59375 -44.53125 L 11.59375 -45.4375 L 12.15625 -47.828125 L 12.15625 -48.625 L 12.265625 -49.3125 L 12.390625 -50.109375 L 12.609375 -51.578125 L 12.71875 -52.265625 L 12.71875 -53.0625 L 12.84375 -53.734375 L 13.296875 -55.09375 L 13.40625 -56.6875 L 13.515625 -57.375 L 13.859375 -58.96875 L 14.203125 -60.78125 L 14.546875 -62.375 L 14.65625 -63.046875 L 14.65625 -63.734375 L 14.765625 -65.21875 L 14.765625 -65.890625 L 15 -66.6875 L 15.34375 -68.046875 L 15.671875 -69.875 L 16.125 -73.046875 L 16.25 -73.953125 L 16.359375 -74.75 L 16.359375 -75.65625 L 16.8125 -76.578125 L 16.703125 -77.828125 L 17.15625 -78.390625 L 17.953125 -79.296875 L 19.09375 -79.53125 L 20.671875 -79.53125 L 27.5 -79.40625 L 32.375 -79.40625 L 33.171875 -79.53125 L 34.3125 -79.640625 L 35.21875 -79.40625 L 36.921875 -79.1875 L 37.953125 -79.1875 L 39.421875 -78.953125 L 41.125 -78.84375 L 42.375 -78.625 L 44.1875 -78.625 L 45.109375 -78.390625 L 46.359375 -77.828125 L 47.375 -77.375 L 48.171875 -77.140625 L 49.1875 -76.453125 L 49.875 -76.125 L 50.4375 -75.78125 L 51.8125 -74.984375 L 52.265625 -74.53125 L 52.828125 -73.84375 L 53.28125 -73.28125 L 54.078125 -71.921875 L 54.875 -70.328125 L 55.21875 -68.5 L 55.4375 -66.34375 L 55.4375 -65.546875 L 55.78125 -63.390625 L 55.78125 -62.484375 L 55.4375 -60.890625 L 55.328125 -60.09375 L 55.4375 -58.390625 L 55.4375 -57.59375 L 55.09375 -55.78125 L 54.875 -53.96875 L 54.53125 -52.828125 L 54.078125 -51.46875 L 53.84375 -50.671875 L 53.625 -49.984375 L 53.28125 -49.1875 L 52.71875 -47.828125 L 51.6875 -46.359375 L 51.34375 -45.5625 L 50.890625 -44.53125 L 49.984375 -43.0625 L 49.640625 -42.375 L 48.390625 -40.90625 L 47.828125 -40.328125 L 46.234375 -38.625 L 43.96875 -37.15625 L 42.375 -36.359375 L 41.578125 -36.234375 L 41.578125 -35.21875 L 41.921875 -34.3125 L 42.484375 -32.609375 L 42.484375 -31.578125 L 42.71875 -30.109375 L 43.171875 -29.421875 L 43.28125 -28.515625 L 43.515625 -27.03125 L 43.859375 -26.359375 L 44.1875 -24.875 L 44.421875 -24.203125 L 44.65625 -22.609375 L 44.984375 -21.8125 L 45.21875 -20.90625 L 45.671875 -19.421875 L 45.671875 -18.75 L 46.234375 -17.046875 L 46.46875 -15.5625 L 47.71875 -11.46875 L 47.9375 -9.890625 L 48.734375 -7.953125 L 48.859375 -6.59375 L 48.96875 -5.796875 L 49.1875 -4.765625 L 49.984375 -2.609375 L 49.640625 -1.140625 L 49.078125 -1.015625 L 47.828125 -0.796875 L 46.359375 -0.796875 L 43.96875 -0.453125 L 41.015625 -0.109375 L 39.53125 -0.109375 L 38.28125 0 L 37.375 0 L 36.359375 0.109375 L 35.671875 0 L 34.65625 -1.015625 L 34.421875 -1.59375 L 34.078125 -2.953125 L 33.859375 -3.515625 L 33.515625 -4.765625 L 32.828125 -6.46875 L 32.828125 -7.390625 L 32.5 -8.296875 L 32.265625 -8.640625 L 32.03125 -10.109375 L 31.703125 -10.90625 L 31.703125 -11.703125 L 31.359375 -12.390625 L 31.25 -13.171875 L 30.90625 -14.421875 L 30.453125 -15.5625 L 30.453125 -16.921875 L 29.765625 -18.96875 L 29.65625 -19.765625 L 29.203125 -21.125 L 28.96875 -21.921875 L 28.75 -23.40625 L 28.28125 -24.875 L 28.171875 -26.46875 L 27.953125 -27.03125 L 27.609375 -28.625 L 27.375 -29.765625 L 26.921875 -30.671875 L 26.703125 -31.578125 L 26.25 -32.5 L 25.796875 -32.953125 L 25 -33.0625 L 24.875 -32.609375 L 24.65625 -31.921875 L 24.3125 -30.328125 L 24.203125 -29.421875 L 23.859375 -27.03125 L 23.859375 -25.109375 L 23.296875 -23.625 L 23.0625 -22.046875 L 23.0625 -21.359375 L 22.828125 -19.765625 L 22.375 -18.859375 L 22.375 -16.46875 L 22.15625 -15.5625 L 21.703125 -13.171875 L 21.578125 -12.265625 L 21.359375 -11.59375 L 21.359375 -10.671875 L 21.015625 -9.09375 L 21.125 -8.40625 L 20.90625 -7.609375 L 20.90625 -6.9375 L 20.796875 -5.453125 L 20.671875 -4.65625 L 20.671875 -3.96875 L 20.5625 -3.1875 L 20.453125 -1.8125 L 20.109375 -1.015625 L 19.765625 0 L 18.625 -0.109375 L 17.609375 0 L 15.90625 0.109375 Z M 29.765625 -46.578125 L 31.578125 -46.578125 L 32.953125 -46.921875 L 33.625 -47.375 L 34.765625 -48.0625 L 35.5625 -48.515625 L 36.359375 -49.421875 L 36.8125 -50.109375 L 37.609375 -50.78125 L 38.171875 -52.265625 L 38.40625 -53.171875 L 38.515625 -53.84375 L 39.3125 -55.4375 L 39.3125 -56.34375 L 39.65625 -57.265625 L 39.765625 -59.078125 L 39.65625 -61.578125 L 39.3125 -63.96875 L 38.734375 -64.984375 L 37.953125 -65.78125 L 36.921875 -66.34375 L 34.421875 -66.6875 L 31.703125 -66.796875 L 30.671875 -66.46875 L 30.328125 -65.21875 L 30 -64.421875 L 29.765625 -62.59375 L 29.65625 -60.890625 L 29.53125 -59.421875 L 29.3125 -58.515625 L 28.96875 -56.6875 L 28.96875 -55.890625 L 28.75 -54.1875 L 28.40625 -53.171875 L 28.515625 -52.140625 L 28.28125 -51.125 L 27.953125 -49.3125 L 27.828125 -48.515625 L 27.953125 -47.71875 L 27.828125 -46.8125 Z M 29.765625 -46.578125 "/></g></g></g><g fill="#ffffff" fill-opacity="1"><g transform="translate(575.378283, 517.83967)"><g><path d="M 9.203125 0.234375 L 7.5 0.109375 L 6.703125 0 L -1.59375 -0.109375 L -2.609375 -0.34375 L -2.84375 -1.25 L -2.609375 -2.046875 L -2.5 -2.734375 L -1.8125 -4.09375 L -0.90625 -5.5625 L 0.234375 -8.96875 L 0.90625 -10.34375 L 1.484375 -11.703125 L 2.734375 -14.421875 L 3.1875 -15.90625 L 4.09375 -17.953125 L 4.3125 -18.625 L 4.890625 -19.421875 L 5.453125 -20.796875 L 5.6875 -21.46875 L 5.796875 -22.265625 L 6.140625 -22.953125 L 6.703125 -24.421875 L 7.046875 -25.21875 L 7.84375 -26.8125 L 8.0625 -27.609375 L 8.296875 -28.625 L 8.859375 -29.53125 L 9.546875 -30.90625 L 9.765625 -31.703125 L 10.453125 -33.28125 L 10.5625 -33.96875 L 10.90625 -34.765625 L 11.25 -35.453125 L 11.8125 -37.03125 L 12.15625 -37.71875 L 13.0625 -40.90625 L 13.40625 -41.8125 L 14.203125 -43.28125 L 14.765625 -45.21875 L 15.453125 -46.46875 L 15.796875 -47.140625 L 16.125 -48.625 L 16.703125 -49.421875 L 17.046875 -50.890625 L 17.265625 -51.46875 L 17.953125 -52.9375 L 18.296875 -54.53125 L 18.859375 -55.328125 L 19.3125 -56.015625 L 20.21875 -58.390625 L 20.796875 -59.875 L 21.125 -60.546875 L 21.8125 -61.578125 L 22.15625 -62.71875 L 22.5 -63.5 L 23.515625 -65.546875 L 23.75 -66.34375 L 24.078125 -67.03125 L 24.3125 -67.71875 L 24.546875 -68.5 L 25.21875 -69.75 L 25.671875 -70.4375 L 25.90625 -71 L 26.578125 -73.046875 L 27.375 -74.53125 L 28.40625 -76.578125 L 28.75 -77.375 L 29.078125 -78.046875 L 29.53125 -79.296875 L 30.328125 -79.40625 L 31.46875 -79.40625 L 33.625 -79.296875 L 34.765625 -79.40625 L 36.578125 -79.40625 L 38.734375 -79.53125 L 39.765625 -79.53125 L 40.5625 -79.296875 L 41.578125 -79.40625 L 43.40625 -79.40625 L 43.96875 -79.1875 L 44.765625 -78.625 L 45.109375 -73.734375 L 45.109375 -71.234375 L 45.328125 -70.546875 L 45.328125 -68.5 L 45.4375 -64.421875 L 45.4375 -62.828125 L 45.5625 -61.34375 L 45.78125 -59.078125 L 45.78125 -57.484375 L 45.890625 -55.78125 L 45.78125 -54.984375 L 45.78125 -52.484375 L 46.015625 -50.890625 L 46.015625 -48.625 L 46.125 -47.03125 L 46.015625 -46.359375 L 46.125 -44.875 L 46.125 -44.1875 L 46.234375 -42.375 L 46.46875 -41.125 L 46.46875 -36.703125 L 46.578125 -35.328125 L 46.6875 -34.421875 L 46.6875 -31.015625 L 46.8125 -25.796875 L 46.8125 -25 L 46.921875 -23.296875 L 46.8125 -21.578125 L 46.921875 -20 L 46.8125 -19.203125 L 47.03125 -14.890625 L 47.03125 -14.203125 L 47.140625 -12.71875 L 47.265625 -11.921875 L 47.265625 -10.21875 L 47.140625 -8.640625 L 47.265625 -7.71875 L 47.265625 -6.703125 L 47.375 -4.203125 L 47.375 -1.8125 C 47.445312 -1.59375 47.484375 -1.273438 47.484375 -0.859375 C 47.484375 -0.441406 47.332031 -0.15625 47.03125 0 C 46.800781 0.0703125 46.59375 0.0859375 46.40625 0.046875 C 46.21875 0.015625 46.007812 0 45.78125 0 L 44.984375 0.109375 L 44.078125 0 L 42.484375 0 L 39.984375 0.109375 L 39.078125 0.109375 L 37.71875 0 L 36.921875 0.109375 L 35.78125 0.234375 L 34.3125 0.109375 L 32.609375 0.109375 L 32.15625 -0.234375 L 31.921875 -1.359375 L 31.8125 -3.40625 L 31.703125 -4.546875 L 31.8125 -5.6875 L 31.8125 -11.015625 L 31.703125 -11.921875 L 29.203125 -12.046875 L 27.375 -12.265625 L 22.375 -12.390625 L 19.3125 -12.390625 L 18.75 -11.140625 L 17.953125 -9.65625 L 17.71875 -8.859375 L 17.375 -8.0625 L 16.921875 -6.703125 L 15.796875 -4.546875 L 15.109375 -2.84375 L 14.765625 -1.59375 L 14.421875 -1.015625 L 13.96875 -0.234375 L 13.296875 0.234375 L 10.109375 0.109375 Z M 27.953125 -27.15625 L 31.359375 -27.15625 L 32.03125 -27.71875 L 32.15625 -29.3125 L 32.03125 -30.21875 L 32.15625 -31.125 L 32.15625 -34.078125 L 32.265625 -34.875 L 32.265625 -36.8125 L 32.5 -37.71875 L 32.375 -40.4375 L 32.5 -44.765625 L 32.609375 -48.859375 L 32.5 -51.46875 L 31.578125 -51.125 L 31.125 -49.640625 L 30.5625 -47.828125 L 30.21875 -46.6875 L 29.65625 -44.875 L 29.203125 -43.96875 L 28.75 -42.828125 L 28.625 -42.03125 L 28.171875 -41.234375 L 27.828125 -40.21875 L 27.5 -39.421875 L 27.15625 -38.40625 L 26.46875 -35.90625 L 26.359375 -35.109375 L 25.796875 -33.40625 L 25.328125 -32.609375 L 24.765625 -30.671875 L 24.546875 -29.875 L 24.3125 -28.859375 L 23.96875 -28.0625 L 24.765625 -27.375 L 25.671875 -27.375 L 26.921875 -27.265625 Z M 27.953125 -27.15625 "/></g></g></g><g fill="#ffffff" fill-opacity="1"><g transform="translate(626.044351, 517.83967)"><g><path d="M 15.671875 0.234375 L 14.890625 0.109375 L 11.59375 0.109375 L 10 -0.109375 L 9.09375 -0.109375 L 8.296875 0 L 7.046875 -0.109375 L 6.25 -0.234375 L 5.34375 -0.109375 L 4.4375 -0.34375 L 3.515625 -1.140625 L 3.40625 -2.84375 L 3.96875 -4.4375 L 4.09375 -6.140625 L 4.3125 -6.9375 L 4.546875 -8.515625 L 4.65625 -9.421875 L 5 -11.140625 L 5.109375 -11.921875 L 5.34375 -12.84375 L 5.453125 -13.640625 L 5.90625 -15.109375 L 5.796875 -15.796875 L 6.140625 -17.84375 L 6.46875 -19.09375 L 6.703125 -20.109375 L 7.046875 -21.125 L 7.265625 -22.15625 L 7.5 -23.515625 L 7.5 -24.3125 L 7.71875 -25.109375 L 7.84375 -25.796875 L 8.0625 -26.578125 L 7.953125 -27.375 L 8.75 -29.875 L 8.96875 -31.578125 L 8.96875 -32.265625 L 9.203125 -33.0625 L 9.3125 -33.859375 L 9.421875 -34.53125 L 9.65625 -36.125 L 9.65625 -37.71875 L 10.109375 -39.3125 L 10.109375 -40.109375 L 10.34375 -41.6875 L 10.796875 -42.609375 L 10.796875 -44.078125 L 11.015625 -45.4375 L 11.359375 -46.921875 L 11.921875 -48.515625 L 12.265625 -50.890625 L 12.265625 -52.484375 L 12.609375 -53.28125 L 12.84375 -54.875 L 12.953125 -55.5625 L 12.84375 -56.34375 L 13.296875 -57.71875 L 13.40625 -58.390625 L 13.75 -59.875 L 13.859375 -60.671875 L 14.3125 -62.140625 L 14.203125 -62.9375 L 14.3125 -63.84375 L 14.421875 -65.328125 L 14.65625 -65.890625 L 14.890625 -67.484375 L 15.21875 -68.953125 L 15.34375 -69.640625 L 15.5625 -70.328125 L 15.671875 -71.6875 L 15.90625 -72.9375 L 16.359375 -74.1875 L 16.59375 -75.890625 L 16.8125 -76.578125 L 16.921875 -77.375 L 17.71875 -78.5 L 18.515625 -78.84375 L 19.203125 -79.296875 L 20 -79.40625 L 21.703125 -79.53125 L 22.71875 -79.40625 L 24.3125 -79.40625 L 25.109375 -79.53125 L 31.125 -79.53125 L 31.921875 -79.640625 L 33.171875 -79.296875 L 33.625 -78.15625 L 33.515625 -77.484375 L 33.515625 -76 L 33.28125 -75.65625 L 33.171875 -74.421875 L 33.28125 -73.734375 L 32.953125 -73.28125 L 32.953125 -72.25 L 32.609375 -71.6875 L 32.375 -70.09375 L 31.921875 -69.078125 L 31.921875 -68.171875 L 31.8125 -67.484375 L 31.8125 -66.6875 L 31.703125 -66 L 31.125 -63.046875 L 30.90625 -61.796875 L 30.671875 -61.125 L 30.453125 -59.765625 L 30.328125 -58.96875 L 30.21875 -57.59375 L 30.109375 -56.796875 L 29.875 -55.328125 L 29.53125 -53.96875 L 29.203125 -52.484375 L 29.078125 -51.921875 L 28.75 -50.328125 L 28.40625 -49.3125 L 28.40625 -48.28125 L 28.28125 -47.484375 L 28.171875 -46.578125 L 28.171875 -45.78125 L 27.953125 -44.3125 L 27.609375 -43.171875 L 27.03125 -39.765625 L 26.578125 -38.171875 L 26.25 -37.375 L 26.25 -36.46875 L 25.90625 -34.984375 L 25.671875 -33.515625 L 25.453125 -32.15625 L 25 -30.5625 L 25 -29.65625 L 24.546875 -28.0625 L 24.546875 -27.15625 L 24.3125 -25.5625 L 24.203125 -25 L 24.203125 -23.40625 L 23.625 -22.265625 L 23.75 -21.015625 L 23.40625 -19.3125 L 23.296875 -18.40625 L 22.828125 -16.921875 L 22.828125 -16.015625 L 22.5 -14.421875 L 22.265625 -12.84375 L 22.046875 -11.359375 L 22.046875 -10.5625 L 21.703125 -9.3125 L 21.25 -6.59375 L 20.90625 -5.109375 L 20.671875 -3.515625 L 20.34375 -2.046875 L 20.21875 -1.140625 L 19.875 -0.109375 L 18.625 0.234375 Z M 15.671875 0.234375 "/></g></g></g><g fill="#ffffff" fill-opacity="1"><g transform="translate(655.921426, 517.83967)"><g><path d="M 5 0.109375 L 4.09375 -0.453125 L 3.640625 -1.140625 L 3.515625 -1.9375 L 3.40625 -2.609375 L 3.515625 -3.296875 L 3.96875 -4.4375 L 4.3125 -5.5625 L 4.4375 -6.359375 L 4.546875 -7.046875 L 5 -8.515625 L 5 -10.21875 L 5.453125 -11.703125 L 5.453125 -12.5 L 5.5625 -13.171875 L 5.796875 -14.65625 L 6.015625 -15.671875 L 6.015625 -17.046875 L 6.59375 -18.625 L 6.8125 -19.3125 L 7.15625 -20.109375 L 7.046875 -20.796875 L 7.390625 -22.265625 L 7.71875 -23.0625 L 7.71875 -23.75 L 7.84375 -24.421875 L 8.0625 -26.015625 L 8.296875 -26.703125 L 8.296875 -28.28125 L 8.40625 -28.96875 L 8.515625 -29.765625 L 8.515625 -30.453125 L 8.96875 -32.03125 L 8.96875 -32.828125 L 9.546875 -34.421875 L 10 -37.828125 L 10.453125 -39.421875 L 10.453125 -39.984375 L 11.140625 -43.171875 L 11.359375 -44.65625 L 11.59375 -46.015625 L 12.15625 -47.484375 L 12.265625 -48.390625 L 12.265625 -49.984375 L 12.84375 -51.46875 L 12.84375 -52.265625 L 13.0625 -53.625 L 13.40625 -56.015625 L 13.296875 -56.921875 L 13.640625 -57.828125 L 14.09375 -59.421875 L 14.3125 -60.328125 L 14.09375 -61.125 L 14.3125 -62.03125 L 14.421875 -63.5 L 14.65625 -64.75 L 15.109375 -65.4375 L 15.109375 -66.234375 L 15.21875 -67.03125 L 15.21875 -67.71875 L 15.671875 -68.5 L 15.796875 -70.328125 L 16.125 -72.140625 L 16.59375 -73.5 L 16.703125 -74.875 L 16.703125 -75.65625 L 16.921875 -76.34375 L 17.5 -78.625 L 17.84375 -79.296875 L 19.65625 -79.53125 L 22.375 -79.53125 L 26.578125 -79.40625 L 31.015625 -79.40625 L 33.28125 -79.296875 L 33.625 -77.9375 L 33.515625 -77.140625 L 33.515625 -76.34375 L 32.828125 -73.625 L 32.828125 -72.828125 L 32.609375 -72.140625 L 32.265625 -69.75 L 32.03125 -68.5 L 31.8125 -67.375 L 30.90625 -63.390625 L 30.5625 -61.796875 L 30.5625 -60.890625 L 30.109375 -59.296875 L 29.875 -57.71875 L 29.421875 -56.921875 L 29.65625 -56.015625 L 29.421875 -55.09375 L 29.3125 -54.3125 L 29.078125 -53.515625 L 28.75 -51.921875 L 28.40625 -50.4375 L 27.953125 -49.640625 L 28.0625 -48.734375 L 27.828125 -47.9375 L 27.828125 -47.03125 L 27.5 -44.65625 L 27.265625 -43.859375 L 27.265625 -42.265625 L 27.03125 -41.46875 L 26.703125 -39.765625 L 26.578125 -38.96875 L 26.125 -37.15625 L 26.015625 -35.453125 L 25.671875 -33.859375 L 25.5625 -32.953125 L 25.453125 -32.15625 L 25 -30.328125 L 25 -29.53125 L 24.765625 -28.625 L 24.65625 -27.03125 L 24.203125 -25.5625 L 24.078125 -24.078125 L 23.859375 -23.0625 L 23.859375 -21.921875 L 23.75 -21.125 L 23.625 -20.453125 L 23.40625 -19.65625 L 23.296875 -18.40625 L 23.0625 -17.265625 L 23.0625 -16.125 L 23.625 -15.5625 L 24.765625 -15.5625 L 25.796875 -15.453125 L 31.703125 -15.453125 L 34.203125 -15.5625 L 37.15625 -15.5625 L 37.828125 -15.21875 L 37.71875 -13.515625 L 37.484375 -12.71875 L 37.609375 -11.921875 L 37.265625 -11.015625 L 36.703125 -7.046875 L 36.359375 -6.25 L 36.359375 -5.453125 L 36.234375 -4.765625 L 36.015625 -3.0625 L 35.5625 -1.25 L 34.65625 -0.453125 L 32.5 -0.453125 L 31.015625 -0.234375 L 28.515625 0.109375 L 26.46875 0 L 24.765625 0.109375 L 23.171875 -0.109375 L 20.90625 0 L 11.59375 0 L 10.453125 0.109375 L 7.265625 0.109375 L 6.46875 0 Z M 5 0.109375 "/></g></g></g><g fill="#ffffff" fill-opacity="1"><g transform="translate(695.909005, 517.83967)"><g><path d="M 22.5 1.484375 L 19.765625 1.25 L 18.96875 1.140625 L 17.84375 1.140625 L 16.59375 0.90625 L 15.453125 0.6875 L 14.65625 0.453125 L 12.84375 -0.34375 L 11.59375 -0.796875 L 10.453125 -1.59375 L 9.09375 -2.5 L 7.953125 -3.96875 L 6.8125 -5.34375 L 5.796875 -6.9375 L 5 -8.859375 L 4.765625 -9.765625 L 3.96875 -11.8125 L 3.859375 -12.5 L 3.515625 -14.09375 L 3.40625 -14.765625 L 3.1875 -16.59375 L 3.1875 -20 L 3.296875 -21.921875 L 3.1875 -22.71875 L 3.40625 -24.421875 L 3.515625 -25.328125 L 3.75 -26.125 L 4.09375 -27.953125 L 5.6875 -28.75 L 8.40625 -28.96875 L 9.765625 -28.859375 L 16.125 -28.859375 L 17.609375 -28.75 L 18.515625 -27.15625 L 18.515625 -22.953125 L 18.40625 -22.15625 L 18.40625 -19.765625 L 18.625 -17.265625 L 18.96875 -16.125 L 19.765625 -14.421875 L 20.90625 -13.296875 L 22.375 -12.953125 L 23.40625 -12.953125 L 24.3125 -13.171875 L 25.5625 -13.515625 L 26.125 -14.09375 L 26.703125 -15.109375 L 27.15625 -15.90625 L 27.609375 -17.265625 L 27.828125 -18.625 L 27.953125 -19.765625 L 27.953125 -20.5625 L 27.828125 -22.15625 L 27.828125 -23.96875 L 27.375 -26.015625 L 27.375 -26.703125 L 27.03125 -28.40625 L 26.125 -30 L 25.21875 -31.359375 L 24.421875 -32.953125 L 23.96875 -33.625 L 23.75 -34.203125 L 23.40625 -34.765625 L 22.609375 -35.5625 L 22.046875 -36.46875 L 20.796875 -37.953125 L 20.21875 -38.515625 L 19.765625 -39.1875 L 18.515625 -40.671875 L 17.15625 -42.15625 L 16.125 -43.625 L 15 -44.875 L 13.859375 -45.78125 L 13.296875 -46.578125 L 12.609375 -47.71875 L 11.921875 -49.421875 L 11.46875 -50.4375 L 10.90625 -51.234375 L 10.5625 -52.03125 L 10.34375 -52.9375 L 9.890625 -54.421875 L 9.765625 -55.890625 L 9.65625 -56.796875 L 9.765625 -57.59375 L 9.765625 -60.890625 L 10 -63.171875 L 10.34375 -63.96875 L 10.453125 -65.546875 L 10.90625 -66.34375 L 11.25 -67.484375 L 11.359375 -68.625 L 12.046875 -70.09375 L 12.5 -71 L 12.84375 -71.796875 L 13.171875 -72.375 L 14.09375 -73.390625 L 14.421875 -73.84375 L 15.109375 -74.984375 L 15.796875 -75.65625 L 17.15625 -76.796875 L 19.203125 -78.28125 L 21.015625 -78.953125 L 22.265625 -79.640625 L 24.421875 -80.09375 L 26.359375 -80.65625 L 29.875 -80.65625 L 32.71875 -80.546875 L 33.515625 -80.546875 L 34.53125 -80.328125 L 36.234375 -80.203125 L 38.171875 -79.640625 L 38.96875 -79.53125 L 39.421875 -79.1875 L 40.78125 -78.5 L 41.578125 -77.828125 L 42.484375 -77.484375 L 43.734375 -76.34375 L 44.078125 -75.890625 L 45.21875 -74.640625 L 45.5625 -74.078125 L 46.359375 -72.828125 L 46.8125 -72.140625 L 47.03125 -70.890625 L 47.375 -70.09375 L 48.0625 -67.375 L 48.0625 -64.875 L 48.171875 -62.59375 L 48.0625 -60.671875 L 47.609375 -57.484375 L 47.140625 -54.984375 L 45.78125 -54.3125 L 43.734375 -54.1875 L 37.375 -54.1875 L 35.78125 -54.3125 L 34.203125 -54.3125 L 33.28125 -55.09375 L 33.171875 -56.578125 L 33.40625 -57.484375 L 33.734375 -61.015625 L 33.734375 -63.625 L 33.515625 -64.984375 L 33.171875 -65.671875 L 32.15625 -66.6875 L 31.015625 -67.59375 L 29.53125 -67.828125 L 28.171875 -67.375 L 26.921875 -66.796875 L 26.359375 -66 L 26.015625 -65.21875 L 25.5625 -64.078125 L 25.453125 -63.28125 L 25.109375 -62.140625 L 25 -60.546875 L 25 -59.078125 L 25.109375 -58.28125 L 25.90625 -56.125 L 26.8125 -54.53125 L 27.265625 -53.625 L 28.0625 -52.140625 L 29.3125 -50.5625 L 30.78125 -48.734375 L 31.25 -48.0625 L 31.8125 -47.484375 L 32.265625 -46.578125 L 32.71875 -46.015625 L 33.40625 -45.5625 L 34.53125 -44.65625 L 34.875 -43.96875 L 35.453125 -43.625 L 35.78125 -43.0625 L 36.8125 -41.921875 L 37.375 -40.90625 L 38.734375 -39.53125 L 39.53125 -37.609375 L 40.5625 -36.359375 L 40.671875 -35.78125 L 41.578125 -33.515625 L 42.265625 -32.03125 L 42.9375 -29.65625 L 43.0625 -28.859375 L 43.171875 -27.953125 L 43.28125 -27.15625 L 43.859375 -25.21875 L 44.078125 -24.546875 L 43.96875 -22.953125 L 43.859375 -22.265625 L 43.96875 -21.46875 L 43.859375 -20.671875 L 43.859375 -17.5 L 43.515625 -15.90625 L 43.40625 -15.21875 L 43.40625 -13.515625 L 42.9375 -12.046875 L 42.71875 -11.140625 L 42.484375 -10.109375 L 41.921875 -8.515625 L 40.90625 -6.59375 L 40.21875 -6.140625 L 39.65625 -5 L 39.078125 -4.546875 L 38.171875 -3.515625 L 37.609375 -3.0625 L 36.703125 -2.265625 L 35.5625 -1.59375 L 34.53125 -0.796875 L 33.171875 -0.453125 L 32.5 0 L 30.78125 0.5625 L 29.875 0.6875 L 28.40625 1.140625 L 27.609375 1.25 L 26.578125 1.140625 L 25.796875 1.25 L 24.546875 1.25 L 23.75 1.359375 Z M 22.5 1.484375 "/></g></g></g></svg>